<?xml version="1.0" encoding="UTF-8"?><svg id="Layer_2" xmlns="http://www.w3.org/2000/svg" viewBox="0 0 1088.0584 296.9329"><g id="Components"><g id="_03f65b44-d3ca-4d64-8e74-6cf9ef6de1d8_1"><path d="m650.0235,161.4126h-31.0119c-.0601-.2212-.1202-.4424-.1804-.6636.6052-.2594,1.1875-.6351,1.8193-.7593,3.8472-.7565,5.3503-2.3568,5.3524-6.1412.0101-18.8051.3546-37.6215-.2035-56.4106-.2809-9.4549-3.625-18.2004-13.6798-21.6954-3.4691-1.2059-7.9376-1.7331-11.2859-.6035-5.8075,1.9593-11.1159,5.4172-16.5975,8.3149-2.4727,1.3071-2.6732,3.4863-2.2497,6.0316.6073,3.6499,1.3007,7.3424,1.3306,11.0218.1389,17.0946.0608,34.1909.0624,51.2867q.0006,6.3702,6.2905,8.385c.2448.0787.3791.5013.9208,1.266h-31.2719c.32-.6661.3705-.9886.5127-1.036,7.0351-2.3428,6.4827-.9525,6.486-9.5266.0072-18.349.255-36.7063-.2301-55.0435-.2453-9.274-4.5009-16.9435-13.6882-20.4291-5.6521-2.1444-11.5269-1.094-16.81,1.7058-4.5646,2.4191-8.9291,5.2534-13.1834,8.1918-.9806.6773-1.6165,2.5274-1.6226,3.8414-.098,21.3122-.103,42.6251-.0411,63.9376.0133,4.5704,1.5067,6.04,6.1965,6.9316.5021.0955.966.3913,1.5812.6505-2.385,1.6217-28.4733,1.7755-31.6377.2374.4214-.3092.7276-.6989,1.1035-.7851,5.8362-1.3384,6.5272-2.1482,6.5294-7.9878.0075-20.1729.005-40.3459,0-60.5189-.002-8.218-2.4095-9.9101-9.1342-10.8117-.4073-.0546-.7842-.3349-1.9229-.8454,4.7149-2.3544,8.8572-4.4591,13.033-6.495,2.7254-1.3288,5.5084-2.5387,8.2494-3.836,3.6199-1.7132,5.8257-.4941,5.9366,3.4232.0923,3.2606.0189,6.5259.0189,10.7207,1.875-1.187,3.0087-1.7726,3.9923-2.5485,7.2634-5.7303,15.2466-10.3387,24.352-11.8904,11.9714-2.0401,22.5682.8795,29.4702,11.8447,1.5719,2.4973,2.7407,2.562,4.7243.8923,5.5706-4.6889,11.7401-8.3744,18.6045-10.8322,15.387-5.5092,32.9489-2.3597,39.3819,16.5581,1.3244,3.8947,1.7454,8.2484,1.7919,12.3994.1926,17.2076.0772,34.4185.0852,51.6282.003,6.587.0363,6.6111,6.3256,8.357.3156.0876.6017.2818.9014.4264-.1006.2692-.2012.5384-.3017.8076Z" style="fill:#17549a; stroke-width:0px;"/><path d="m870.0173,76.4459c0-5.9543.0009-11.0657-.0002-16.1772-.0016-7.1813.0343-14.3628-.019-21.5437-.0456-6.1478-1.8213-7.8785-8.0729-8.1112-.6701-.0249-1.3376-.1199-2.9944-.2747,1.5797-1.2169,2.4574-2.1532,3.5352-2.6805,6.3655-3.1139,12.7672-6.1547,19.1785-9.1738,2.9731-1.4,5.0998-.0878,5.3084,3.2221.0716,1.1357.0294,2.279.0294,3.4188.001,42.1757.0005,84.3513.001,126.527q0,6.749,6.4969,8.4868c.3305.0885.6435.2422.9646.3655-.0855.3113-.1709.6226-.2564.934-.9893.1566-1.9769.4341-2.9683.4483-3.7608.054-7.5233.0565-11.2844.016-6.3975-.0689-7.4229,1.2602-10.3785-6.7059-4.5495,1.7801-9.0819,3.6097-13.6553,5.3301-6.984,2.6271-13.8912,1.6907-20.5511-1.0365-14.1893-5.8103-21.8148-17.1034-25.492-31.465-2.6112-10.1982-2.1553-20.3832,1.3429-30.2609,4.4378-12.5304,12.2547-22.4988,25.0272-27.0669,11.0093-3.9376,21.8107-2.0276,31.6853,4.4044.4365.2843.8779.5611,2.1032,1.3431Zm-.2406,45.6841c0-11.7559.1355-17.8523-2.7799-26.4999-2.4864-7.3755-5.337-14.6039-11.2576-19.8354-2.7186-2.4022-6.3883-4.5719-9.8818-5.0749-6.915-.9956-11.0937,4.1571-14.0418,9.3251-6.1832,10.8389-7.7947,22.8668-7.2024,35.1989.1414,2.9441.7628,5.8662,1.1841,8.7955,1.5018,10.44,4.6776,20.3143,11.3252,28.6191,8.8636,11.0733,20.2268,8.791,26.7997.5313,3.841-4.8266,5.3083-10.9305,5.783-17.0469.3604-4.6449.0715-9.3401.0715-14.0129Z" style="fill:#17549a; stroke-width:0px;"/><path d="m899.2376,79.9589c7.8375-3.815,14.9513-7.4327,22.2084-10.7359,3.0088-1.3695,5.1729.2355,5.3186,3.607.1447,3.3479.0317,6.7069.0317,11.1399,3.4178-2.4722,5.85-4.3944,8.4393-6.0747,8.8607-5.75,18.2247-9.597,29.1756-8.9734,9.5705.5451,18.5336,7.343,21.9727,15.5348,2.0751,4.9427,3.0079,10.0485,2.9598,15.4594-.1468,16.5218-.0526,33.0458-.0532,49.569q-.0003,8.1553,6.881,11.2622c-1.857,1.4976-27.4345,1.7675-30.8089.3243.068-.2079.0932-.5638.2152-.6009,7.5878-2.3056,6.6382-2.0518,6.6519-9.4582.0334-18.1179.0253-36.2367-.1243-54.3538-.0527-6.3848-2.2657-12.0282-6.7535-16.7648-5.3269-5.6222-11.9771-6.473-18.8423-4.6833-6.4737,1.6877-12.308,5.1292-17.3021,9.6726-1.1643,1.0592-2.2604,2.9154-2.2707,4.4126-.1462,21.1942-.018,42.3903-.1567,63.5846-.0349,5.332,2.9984,7.0817,7.8019,7.5012-2.297,1.9267-28.5981,2.1531-31.9915.4133.6505-.3093,1.098-.6299,1.5925-.7408,5.3808-1.2069,6.2058-2.1393,6.2111-7.5573.02-20.2834.0136-40.5669.003-60.8503-.0041-7.8094-1.4015-9.444-9.1025-10.8336-.4187-.0755-.8057-.3265-2.0572-.8539Z" style="fill:#17549a; stroke-width:0px;"/><path d="m1088.0584,161.4645c-1.1796.1484-2.3574.4063-3.539.4246-3.5316.0547-7.0655.0584-10.5972.0036-5.8907-.0914-8.9866-2.9914-9.4535-8.8034-.1514-1.8853-.2348-3.7761-.3817-6.1974-2.8146,2.5304-5.0973,4.819-7.618,6.8055-8.1816,6.4477-17.6045,9.3501-27.8654,7.9204-15.4911-2.1585-25.9988-13.5891-23.695-30.1021,1.3074-9.3708,7.5054-16.0209,15.2018-20.6673,8.2129-4.9582,17.2017-8.6127,25.6332-13.235,4.6826-2.5671,9.0863-5.7348,13.298-9.037,2.826-2.2157,3.6531-5.7332,2.1718-9.0021-1.6019-3.5347-4.5443-5.8893-8.638-6.4086-8.7971-1.1158-16.7748,1.4263-23.7423,6.417-5.4947,3.9358-10.2716,8.8732-15.3725,13.3598-.7333.645-1.4959,1.2566-3.0806,2.5832,0-3.6183-.0012-6.2951.0003-8.9719.0023-4.1023.021-8.2047.0036-12.3069-.0095-2.2552.7677-3.6977,3.2997-3.8115,9.3935-.4222,18.8293-1.7016,28.1658-1.1761,14.33.8064,26.8797,6.1149,34.4756,19.2321,2.0868,3.6037,3.7582,8.0045,3.88,12.0915.482,16.1672.28,32.3551.3177,48.5354q.0199,8.5279,7.5358,12.3463Zm-24.4953-72.1468c-.3314-.0586-.6628-.1172-.9941-.1758-5.5066,6.7981-12.9864,10.9939-20.06,15.7906-6.516,4.4186-12.9239,9.1387-16.9876,16.2212-3.3171,5.781-3.8667,11.9792-1.3376,17.9552,4.3993,10.395,11.9152,14.8595,23.7514,13.9693,8.8174-.6631,16.1727-7.2235,16.3178-16.5156.2224-14.2425.0776-28.4911.0213-42.7369-.0059-1.5036-.4633-3.0054-.7112-4.5081Z" style="fill:#17549a; stroke-width:0px;"/><path d="m490.2447,161.3789c-1.4665.2204-2.4917.4928-3.5206.5078-3.6461.053-7.2942.0598-10.9404.0071-6.1655-.0891-9.5022-3.4636-9.6183-9.6714-.0311-1.6648-.0047-3.3307-.0047-4.9961-.2793-.1501-.5585-.3003-.8378-.4504-1.4753,1.6158-2.8328,3.3611-4.4453,4.8259-9.0821,8.2506-19.8942,11.9666-31.8905,9.8171-14.1826-2.5413-23.4743-12.8895-22.4901-27.9199.4776-7.2937,4.3097-13.0527,9.5422-18.0378,6.3851-6.0832,14.1625-9.7744,21.9388-13.5926,7.0531-3.463,14.0749-7.0632,20.7416-11.1978,2.2096-1.3703,4.1133-4.4055,4.6797-7.0017,1.0681-4.8961-3.4977-9.8206-8.7678-10.468-8.2461-1.0131-15.6487,1.308-22.6778,5.4689-6.6503,3.9367-12.4929,8.7387-17.2243,14.8729-.3948.5118-1.0601.8149-2.0962,1.583-.1437-1.3317-.3252-2.253-.3292-3.175-.0254-5.9262.0217-11.8528-.0292-17.7787-.0184-2.1442.7215-3.5578,3.0069-3.7003,8.1409-.5077,16.2801-1.0682,24.4276-1.4393,8.1832-.3727,15.8822,1.6958,23.1731,5.2782,9.4782,4.6572,15.9391,12.0386,18.9269,22.1789.7183,2.438.4073,5.2062.4125,7.8229.031,15.6135.0154,31.227.0165,46.8405.0005,6.9735.0458,7.0241,6.9047,9.0609.2606.0774.4352.4445,1.1015,1.1649Zm-25.0058-71.8423c-5.688,4.3735-10.7241,8.5132-16.0348,12.2641-7.323,5.1721-15.087,9.7133-20.4895,17.2218-4.3347,6.0245-5.3829,12.7951-3.0526,19.3569,4.3689,12.3017,17.1132,18.3228,29.9348,13.1782,6.2213-2.4963,10.5461-8.6882,10.554-15.1533.0176-14.3415.0326-28.6831-.0416-43.0242-.0074-1.4294-.6352-2.8557-.8704-3.8435Z" style="fill:#17549a; stroke-width:0px;"/><path d="m392.5131,78.7251c-3.5519,3.7976-7.0004,7.628-10.6883,11.2122-.3812.3705-2.567-.392-3.272-1.1943-5.0662-5.7655-10.7666-10.8072-18.0913-13.2161-8.3333-2.7406-16.7128-2.5426-23.8557,3.39-6.6622,5.5334-5.7365,13.8347,2.341,18.4823,5.2027,2.9935,11.0049,4.9844,16.6257,7.2033,10.6886,4.2196,21.9481,7.1812,31.259,14.3802,10.7906,8.3431,12.7033,20.0262,3.3949,30.6447-11.0237,12.5751-25.1246,14.45-40.6446,11.0741-8.5819-1.8667-16.3844-5.3277-23.6372-10.2361-2.4915-1.6861-2.7173-3.1267-.86-5.4688,2.4978-3.1498,4.8492-6.4443,6.953-9.8675,1.3176-2.144,2.198-1.8925,3.4652-.1635,5.9011,8.0515,13.2264,14.4854,22.219,18.8346,4.6544,2.2511,9.5819,4.3077,14.8952,3.4624,4.4863-.7137,9.0501-1.7842,11.9739-5.8639,4.125-5.7556,1.1225-12.7802-3.7684-16.7531-6.6982-5.441-14.7842-8.1442-22.6305-11.362-7.7563-3.1809-15.7557-6.0598-22.9425-10.2749-13.1616-7.7193-13.2837-25.7676-1.1936-35.4258,10.5578-8.4341,22.9819-9.7593,35.6866-8.2393,8.0249.9601,15.7377,3.786,22.7705,9.3813Z" style="fill:#17549a; stroke-width:0px;"/><path d="m795.3901,139.6088c-.6928,1.4171-1.2277,2.9411-2.103,4.2347-7.5371,11.1376-17.7072,17.977-31.4714,17.9816-13.1292.0043-22.7842-6.6905-30.1098-17.1188-7.3684-10.4893-9.9491-22.3215-8.6154-34.8674,1.6747-15.7524,8.5282-28.6645,22.6706-36.7854,13.6118-7.8162,30.6986-4.4477,41.5668,6.5986,4.8356,4.9149,8.5177,10.498,10.7561,17.0143.3561,1.0366.4744,2.1548.8119,3.7523-4.5517.9765-8.7886,1.9705-13.0598,2.7844-9.524,1.8148-19.062,3.5562-28.6005,5.2939-4.347.7919-8.6918,1.63-13.0689,2.2121-3.3545.4461-5.1353,1.8506-4.9874,5.4883.4908,12.0777,3.2443,23.3909,11.652,32.5263,9.0206,9.8013,24.1839,10.3257,33.4893,1.0359,2.5408-2.5364,4.7619-5.3925,7.1377-8.0949.8442-.9602,1.7121-1.8995,2.5692-2.8483.4542.2641.9085.5282,1.3627.7923Zm-55.7539-30.3241c7.957-1.3229,14.8295-2.3858,21.6697-3.626,6.2877-1.14,12.5156-2.6236,18.8182-3.6632,3.3794-.5575,4.6286-1.764,4.0509-5.1022-1.317-7.61-4.2082-15.2852-9.4327-21.0639-3.0088-3.328-6.6473-6.2908-11.4062-5.1644-3.1384.7428-6.3291,2.4409-8.8166,4.5232-5.9423,4.9743-8.9891,11.9673-11.3715,19.1165-1.5135,4.5421-2.2257,9.3513-3.5119,14.98Z" style="fill:#17549a; stroke-width:0px;"/><path d="m644.3996,69.3202h30.4609c.0442.1646.0884.3291.1326.4937-1.753.6768-3.5499,1.2598-5.2482,2.0536-2.2149,1.0352-2.3817,3.006-1.5816,4.9362,5.0009,12.0633,10.1352,24.0712,15.133,36.1357,3.0454,7.3515,5.9123,14.7769,8.8958,22.1544.3997.9883,1.0138,1.8898,1.95,3.6023,2.8313-9.1203,5.3025-17.3803,7.9635-25.5787,3.5814-11.0341,7.2023-22.058,11.0175-33.0127,2.0322-5.8351.6922-8.1704-6.5104-10.1106,1.8028-1.4238,17.5267-1.6968,21.2776-.1659-1.0013.3688-1.6341.6704-2.3006.8367-6.06,1.5115-8.8542,5.8651-10.6013,11.4913-3.6138,11.6371-7.5546,23.1722-11.2461,34.7858-2.5133,7.9068-4.7926,15.8877-7.2498,23.8128-2.0127,6.4915-4.0824,12.9669-6.277,19.3982-.2515.737-1.4162,1.4442-2.2596,1.5953-.534.0957-1.5636-.7303-1.8475-1.3738-2.303-5.2211-4.5326-10.4764-6.6883-15.7605-4.0365-9.8946-7.973-19.83-12.0165-29.7217-4.6024-11.2591-9.2741-22.4899-13.921-33.7307-.9834-2.3789-1.5888-5.0544-3.0999-7.0352-1.4907-1.954-3.9088-3.2004-5.983-4.806Z" style="fill:#17549a; stroke-width:0px;"/><path d="m449.5504,237.3241h-5.1218l-8.3658-30.6176-8.3658,30.6176h-5.1218l-10.813-37.9593h5.2354l8.4233,31.6423,8.7067-31.6423h3.9272l8.7074,31.6423,8.3658-31.6423h5.2354l-10.813,37.9593Z" style="fill:#17549a; stroke-width:0px;"/><path d="m526.6635,237.3241h-24.8695v-37.9593h24.8695v4.2113h-20.1461v12.2362h19.7477v4.2113h-19.7477v13.0892h20.1461v4.2113Z" style="fill:#17549a; stroke-width:0px;"/><path d="m592.6788,237.3241h-22.3654v-37.9593h4.7234v33.748h17.6421v4.2113Z" style="fill:#17549a; stroke-width:0px;"/><path d="m657.8412,237.3241h-22.3654v-37.9593h4.7234v33.748h17.6421v4.2113Z" style="fill:#17549a; stroke-width:0px;"/><path d="m717.938,237.3241h-17.3005v-37.9593h16.9021c3.2625,0,5.8522.892,7.7682,2.6752,1.9154,1.7832,2.8744,4.1168,2.8744,6.9995,0,2.2768-.6462,4.2024-1.9352,5.7769-1.2904,1.5745-2.8648,2.552-4.7234,2.9305,2.0105.3039,3.7458,1.3657,5.2073,3.1872,1.4601,1.8209,2.1905,3.8697,2.1905,6.1458,0,3.0736-.9768,5.5489-2.9305,7.4273-1.9544,1.8777-4.6385,2.8169-8.053,2.8169Zm-1.1952-21.5118c2.0865,0,3.6993-.5695,4.8377-1.7079,1.1377-1.1377,1.7073-2.5978,1.7073-4.3818s-.5791-3.253-1.736-4.4105c-1.1576-1.1569-2.7601-1.736-4.8089-1.736h-11.3819v12.2362h11.3819Zm.228,17.3005c2.1994,0,3.9265-.588,5.1786-1.7641,1.252-1.176,1.8784-2.769,1.8784-4.7809,0-1.8585-.6175-3.4145-1.8496-4.6665-1.2335-1.252-2.9695-1.8777-5.2073-1.8777h-11.6099v13.0892h11.6099Z" style="fill:#17549a; stroke-width:0px;"/><path d="m797.4415,237.3241h-24.8695v-37.9593h24.8695v4.2113h-20.1461v12.2362h19.7477v4.2113h-19.7477v13.0892h20.1461v4.2113Z" style="fill:#17549a; stroke-width:0px;"/><path d="m845.8148,237.3241h-4.7234v-37.9593h4.7234v37.9593Z" style="fill:#17549a; stroke-width:0px;"/><path d="m922.2455,237.3241h-4.5529l-22.1381-30.276v30.276h-4.7234v-37.9593h4.837l21.8541,29.6503v-29.6503h4.7234v37.9593Z" style="fill:#17549a; stroke-width:0px;"/><path d="m985.2447,238.0641c-5.5017,0-10.1306-1.8305-13.8867-5.4921-3.7561-3.6609-5.6338-8.3939-5.6338-14.1988s1.8777-10.529,5.6338-14.1707c3.7561-3.6425,8.385-5.4633,13.8867-5.4633,5.9939,0,10.9068,2.3713,14.7396,7.1138l-3.7561,2.3329c-1.2144-1.5936-2.7984-2.8641-4.7521-3.8129-1.9544-.9481-4.032-1.4225-6.2314-1.4225-4.1743,0-7.6546,1.4512-10.4434,4.3537-2.7888,2.9025-4.1826,6.5922-4.1826,11.0691s1.3937,8.1762,4.1826,11.0971c2.7888,2.9223,6.269,4.3824,10.4434,4.3824,2.0858,0,4.0306-.4073,5.833-1.224,1.8017-.8153,3.253-1.773,4.3537-2.8737v-7.7401h-13.0323v-4.2113h17.7557v13.7155c-3.9081,4.3633-8.8778,6.5449-14.91,6.5449Z" style="fill:#17549a; stroke-width:0px;"/><path d="m163.2698,161.6929c.3899-.4.5298-.9401.4099-1.2001-.1301-.2899-.5999-.59-1.23-.7999-2.22-.73-5.0601-.1801-7.79,1.5-.53.33-1.05.6899-1.55,1.0699,2.48.9401,5.24,1.16,7.8101.5499,1.1101-.2699,1.8799-.6399,2.3501-1.1199Z" style="fill:#17549a; stroke-width:0px;"/><path d="m169.4797,176.6929c.1599-.28.24-.5.24-.6401-.04-.0798-.1399-.2899-.3801-.49-.98-.8199-5.8999-3.33-12.1899-.6799-1.4199.6-2.78,1.37-4.0898,2.24.3899.23.7898.41,1.2998.65l.24.1c6.5601,3.01,13.99.3501,14.8801-1.1799Z" style="fill:#17549a; stroke-width:0px;"/><path d="m214.8496,50.3728c-10.2,0-19.99,2.12-29.1499,6.3101,1.25,5.4099,1.8699,10.99,1.8699,16.6399,0,14.23-4.0298,28.0701-11.6599,40.01-7.04,11.01-16.8101,19.9501-28.3499,25.97,7.77,2.8501,15.9299,4.3,24.2798,4.3,38.75,0,70.28-31.53,70.28-70.28,0-6.2799-.8201-12.48-2.45-18.45-7.9099-2.99-16.26-4.5-24.8201-4.5Z" style="fill:#17549a; stroke-width:0px;"/><path d="m151.4397,9.5228c15.98,9.64,28.02,25.15,33.22,43.13,9.5-4.24,19.6501-6.39,30.1899-6.39,8.1902,0,16.1902,1.3199,23.8501,3.91-.6001-.6201-1.2-1.24-1.8101-1.8501-23.0901-23.0999-53.1599-36.6799-85.45-38.7999Z" style="fill:#17549a; stroke-width:0px;"/><path d="m153.9297,41.1428c.46-.4299.6899-.66.01-.99-1.9199-.9299-3.8999-1.67-6.0701-1.67-1.98.01-3.4399,1.3101-3.47,3.3101-.0698,4.5299-.02,9.0699-.03,13.6,0,.85.3801.89,1.0701.6699.6299-.1899,1.3-.3099,1.96-.3499,1.29-.0801,2.1301.5898,2.21,1.6599.0901,1.15-.5298,1.8501-1.8398,2.0601-2.3801.3899-3.3901,1.58-3.3901,4.03-.01,4.24,0,8.47-.01,12.71v8.04c0,1.6699-.01,3.3398,0,5.01.01.3199.1101.6399.1702.95,1.8098-.78,3.5-1.8701,5.3499-2.52.8601-.3101,1.6101.14,2.0701.9199.4099.7001.24,1.7201-.3999,2.23-.3401.27-.77.4401-1.1902.5801-4.0701,1.45-6.0798,5-5.96,8.53.1399,3.8199,2.8101,7.05,6.3601,7.99,3.73.99,7.52-.53,9.6199-3.91.46-.75,1.01-1.22,1.8401-1.5,4.1199-1.39,6.4099-5.15,5.8398-9.49-.2-1.5.03-1.9501,1.3801-2.6901,3.0901-1.6699,4.53-4.8499,3.75-8.2699-.22-.9801-.4001-1.0601-1.26-.5601-1.71.9801-3.52,1.59-5.5,1.59-1.3,0-2.0701-.6599-2.1299-1.7799-.05-1.1.5798-1.75,1.8198-1.9501.9199-.1599,1.8801-.23,2.71-.58,5.01-2.13,6.1702-8.17,2.3101-12.0399-.9099-.9001-1.1399-1.7401-.72-2.9801,1.1599-3.38-.49-7.23-3.6599-8.7799-3.28-1.6101-7.1501-.5801-9.28,2.46-.8601,1.23-1.1599,2.62-1.29,4.08-.1199,1.2201-.8401,1.88-1.96,1.8199-1.1599-.0499-1.79-.71-1.75-1.98.03-.9299.0901-1.8799.3499-2.76,1.3301-4.4099,4.3201-7.0499,8.8101-8.0599.3701-.08.8801-.36.99-.67.5801-1.6299.3-3.1599-.8401-4.48-1.1099-1.29-2.5298-1.88-4.2698-1.59-1.54.25-2.6001,1.13-3.4102,2.4301-.74,1.2-1.72,1.49-2.7.8899-1.01-.6-1.3398-1.6599-.53-2.78.8501-1.1799,1.96-2.1899,3.04-3.1799Zm11.4592,51.9392c-.0347,1.0398-.7009,1.7262-1.8755,1.8013-3.135.2003-5.438,1.6401-6.6892,4.5468-.3586.8328-.4749,1.7847-.6086,2.6957-.1885,1.2815-.8687,1.9983-1.9795,1.9482s-1.7749-.8048-1.7468-2.1362c.0876-4.1327,2.0247-7.2159,5.5164-9.3163.8447-.5082,1.0779-1.0251.9023-1.9673-.6709-3.5978-3.1216-5.8326-6.959-6.2483-1.5015-.1627-2.1611-.8114-2.082-2.047.0752-1.1763.8521-1.7313,2.3904-1.7078,5.0403.0767,9.6025,4.1467,10.4026,9.3241.1074.696.2144,1.1345,1.0771,1.2137,1.0813.0991,1.6848.9116,1.6519,1.8931Zm-8.5723-24.7427c2.7195-.9927,4.3113-3.0443,4.7239-5.9501.0469-.3304.0662-.6652.1187-.9946.1829-1.1515.8892-1.785,1.9319-1.7448,1.0732.0415,1.7566.7913,1.8103,1.9893.0066.1481.0007.2969,0,.4453-.176,4.4875-3.281,8.5369-7.6423,9.9659-1.145.3751-1.2312.6644-.4497,1.5936.9111,1.0837,2.1028,1.6101,3.4956,1.7222.8364.0673,1.5181.3958,1.8418,1.2151.5266,1.3323-.4551,2.5625-2.0083,2.5442-3.3491-.0399-6.4888-2.2084-7.6047-5.3809-.3191-.9069-.7651-1.3903-1.7112-1.5935-1.7031-.3657-3.145-1.2896-4.4468-2.4194-1.1033-.9574-1.2886-2.1292-.5283-3.0204.7844-.9192,1.8882-.8865,3.0186.119,2.1943,1.9519,4.7295,2.5023,7.4507,1.509Z" style="fill:#17549a; stroke-width:0px;"/><path d="m173.1897,194.4729c.4399-.6702.48-1.25.48-1.4301-.05-.1801-.25-.7001-.8301-1.2201-1.5498-1.34-10.8599-3.8799-19.73.7101,1.9102,1.39,3.8601,2.61,5.99,3.5199,6.6602,2.8601,13.0801-.0499,14.0901-1.5798Z" style="fill:#17549a; stroke-width:0px;"/><path d="m9.0298,142.7029c0,35.6499,13.8899,69.1699,39.0999,94.3799,23.72,23.73,54.8101,37.42,88.1101,38.9501.78-4.9301,2.6799-9.15,5.0798-12.92-1.8799-2.51-3.97-4.88-6.0398-7.22-6.22-7.05-12.0901-13.71-11.3701-23.1.27-4.28,2.28-8.16,5.6501-10.89,3.0298-2.45,7.0498-3.86,11.0398-3.86h.02c6.73,0,14.8401,4.1,15.6001,15.6899l.01.13c0,3.53-1.3801,6.8501-3.8701,9.3401-2.49,2.49-5.79,3.8599-9.2998,3.8699-6.52.25-10.6602-5.1799-10.8901-10.5699-.1899-4.5599,2.5-9.2999,8.96-9.6,2.6101-.14,4.97,1.0701,6.4302,3.33,1.5398,2.39,1.7598,5.42.5498,7.7201-1.0698,2.0599-3.0798,3.24-5.6599,3.34h-.0801c-3.1399,0-5.7-2.5601-5.7-5.7101h4.1001c0,.8701.7,1.5901,1.5698,1.6001,1.0601-.04,1.76-.41,2.1401-1.1301.5-.97.3501-2.48-.3701-3.5999-.46-.7101-1.3101-1.53-2.76-1.4501-4.9199.23-5.1299,4.13-5.0798,5.3199.1199,2.8701,2.2798,6.8101,6.6699,6.6501h.0801c2.4299,0,4.72-.9501,6.4399-2.6702,1.7-1.7,2.6499-3.96,2.6699-6.3699-.6099-8.6901-6.3301-11.79-11.51-11.79h-.02c-5.7698.01-12.1499,3.84-12.5999,10.9299-.5901,7.7001,4.48,13.4501,10.3599,20.1001,1.8,2.04,3.6602,4.1599,5.4202,6.4099,1.8899-2.49,3.9199-4.7999,5.8799-7.02,5.8501-6.6499,11.3701-12.9299,11.1799-21.6099-.1799-8-5.21-16.9301-13.45-23.8901-2-1.6899-4.0798-3.1699-6.1899-4.4299-.1101.11-.23.22-.3501.3301-4.72,4.46-8.1399,6.3999-13.0698,7.3999-5.6802,1.16-14.5901.4301-16.6501-4.84-.5601-1.4301-.54-3.0599.05-4.84l.05-.17.1001-.17c.3398-.6299.75-1.22,1.21-1.77l.1099-.1199c.3501-.3601,3.6301-3.53,10.49-4.53,5.1401-.75,11.29.6,17.3501,3.6599l.3-.2999c1.6899-1.7001,3.4299-3.4301,5.3398-5-.02-.01-.03-.02-.04-.03-1.21-.98-2.46-1.99-3.7-2.92-.8201-.6199-1.6399-1.2-2.4399-1.74-2.4099,1.67-5.03,3.0801-7.9399,3.89-7.3201,2.03-14.53-1.5-16.0801-4.74-.8201-1.6801-.5901-3.1801-.54-3.47.3801-1.99,1.8501-3.14,2.3401-3.51,3.5801-2.7999,9.8599-1.63,10.76-1.4401,3.7.6401,7.4199,2.0601,11.27,4.3101,1.0398-.8101,2.05-1.6699,3.05-2.52l.8899-.78c.9299-.7999,1.8601-1.6099,2.8201-2.3999-1.05-1.01-2.3601-2.3101-4.0701-4l-.1501-.15c-.25-.25-.5999-.6-1.0398-1.01-1.8801,1.08-3.99,1.99-6.4299,2.6-4.9602,1.25-9.29.74-11.6101-1.37-.4202-.39-1.7-1.5599-1.9202-3.47-.1099-.9401.0103-2.4,1.2302-4.01,2.8298-3.7201,9.47-2.6901,10.78-2.4501,3.3599.6301,6.1499,2.16,8.22,3.6401,1.03-.74,2.03-1.5601,3.05-2.4501.5498-.48,1.0898-.97,1.6299-1.4601-.1299-.1099-.25-.23-.3701-.3398-5.5098-5.28-5.71-12.8801-5.54-19.8501-8.6499,3.37-17.7698,5.0901-27.1099,5.0901-41.02,0-74.3901-33.3701-74.3901-74.3801,0-5.77.6602-11.47,1.9602-17.02-20.53,24.1001-31.73,54.3901-31.73,86.4001Z" style="fill:#17549a; stroke-width:0px;"/><path d="m141.9612,292.7111c.0046.0131.009.0258.0137.0387.0967.2775.1948.5435.293.7998.033.0854.0659.1643.0986.2473.0681.1718.136.3416.2041.5022.0391.0927.0781.1797.1174.2686.062.1407.1238.2788.1853.4097.0403.0854.0801.1675.1201.2488.0601.1221.1196.2393.1787.3511.0391.0737.0779.1466.1165.2158.0593.1068.1179.2056.1758.3009.0359.0593.0725.1207.1077.1755.0615.0953.1211.1787.1804.2596.0291.0399.0593.0853.0879.1217.0862.1097.1699.2062.2493.2821.0808-.0719.167-.1643.2566-.27.0291-.0344.0603-.0779.0901-.1157.062-.0785.1248-.1597.1899-.2527.0376-.0537.0764-.1143.1147-.1726.061-.0925.1226-.1882.1853-.2922.0417-.0686.0837-.1411.126-.2146.0623-.1083.1252-.2219.1887-.3406.0437-.082.0876-.1649.1321-.2516.0649-.1272.1306-.2618.196-.399.043-.0897.0859-.1777.1292-.2717.071-.1545.1423-.3188.2134-.4844.0381-.0886.0762-.1731.1143-.2648.1008-.2435.2014-.4977.3005-.7616.0166-.0442.0332-.0891.0498-.1339.0959-.2593.1909-.5272.2837-.8041.0366-.1091.0718-.2244.1079-.3361.0652-.202.1299-.4052.1929-.6152.04-.1332.0781-.2709.1172-.4071.0562-.1982.1118-.3984.1658-.603.0388-.1478.0767-.2983.114-.4492.0505-.2041.0996-.4109.147-.6204.0356-.1558.0703-.3123.104-.4711.0459-.2167.0889-.4374.1309-.6591.03-.158.0608-.3151.0889-.4756.0422-.2426.0801-.49.1177-.7378.0217-.1447.0457-.2871.0659-.4336.051-.3727.0962-.7505.1348-1.1331.002-.0217.0054-.0425.0073-.0642h.0002c.0852-.8674.1365-1.7584.1453-2.6652.0601-6.0399-1.7598-10.99-4.4399-15.4-1.6199,2.8201-2.8699,5.8801-3.48,9.3201.71.01,1.4199.02,2.1301.02h1.1799c1.1299-.02,2.0601.8999,2.0701,2.03.01,1.1399-.9001,2.0599-2.04,2.0699-.4001.01-.8.01-1.21.01-.8501,0-1.7-.02-2.55-.03-.02.7101-.01,1.4401.02,2.1901.0425.861.1174,1.7129.2187,2.5471h0c.001.0063.002.0126.0027.019.0471.3875.1008.7706.1589,1.1497.0195.1272.0417.2516.0623.3777.0417.2556.0842.5103.1301.7609.0269.1469.0557.2911.084.4362.0442.2258.0891.4507.1362.6719.0317.1477.0642.2935.0969.439.0483.2145.0979.4265.1489.6357.0339.1399.0681.2794.1033.4167.0542.2122.1099.4199.166.6257.0342.1252.0684.2517.1033.3745.0632.2219.1282.4373.1934.6506.03.0977.0593.1985.0894.2944.0945.2988.1904.5896.2874.869Z" style="fill:#17549a; stroke-width:0px;"/><path d="m171.8396,147.7029c-9.4099,0-18.5898-1.74-27.2798-5.16l-.1501-.0601c-.1699,6.42-.05,12.88,4.27,17.02.2.1901.4099.37.6199.5499,1-.8398,2.0601-1.6399,3.2102-2.3499,3.76-2.3201,7.8398-3.01,11.22-1.91,1.8.59,3.0801,1.64,3.7,3.0299.8201,1.8401.3301,4.1401-1.22,5.74-1.02,1.05-2.4399,1.78-4.3301,2.24-4.0601.9701-8.5.3401-12.21-1.5999-.1201.1099-.24.22-.3599.33-.6702.61-1.3501,1.23-2.04,1.83-.8.7-1.6401,1.4-2.52,2.0701.1699.1699.3198.3199.45.4399l.1301.14c2,1.97,3.4099,3.37,4.46,4.38,1.79-1.27,3.6899-2.4199,5.77-3.29,8.1099-3.4099,14.5999-.21,16.4099,1.3201,1.3601,1.1399,1.7,2.49,1.76,2.75.24,1.1599,0,2.36-.7,3.58-2.1902,3.77-12.0801,6.5499-20.1401,2.85l-.23-.1c-1.28-.59-2.02-.9401-3.0798-1.77-1.0801.88-2.1501,1.8-3.2002,2.7101l-.8999.77c-.6802.5999-1.3801,1.1899-2.0901,1.7699.48.34.97.7001,1.46,1.0699,1.3.9701,2.5801,2.01,3.8201,3.01.3101.25.6101.5.9199.74,10.5701-6.4099,22.8901-3.73,25.9402-1.0699,1.8599,1.62,2.1799,3.51,2.21,3.7201.03.22.26,2.1899-1.1301,4.2899-1.23,1.85-4.0898,3.4501-7.49,4.1801-3.8999.84-8.03.45-11.6399-1.1001-2.95-1.26-5.5701-3.0299-8.05-4.9199-1.8301,1.4099-3.5,3.04-5.23,4.77,2,1.24,3.95,2.6699,5.8301,4.26,9.1299,7.71,14.7,17.77,14.9099,26.9299.23,10.28-6.0901,17.46-12.2,24.41-2.21,2.51-4.46,5.0599-6.4299,7.7899,2.5,3.75,4.5498,7.9301,5.5,12.79,69.7598-4.8099,124.1799-62.98,124.1799-133.1499,0-32.01-11.2-62.29-31.73-86.3901,1.2898,5.54,1.96,11.24,1.96,17.01,0,41.01-33.3601,74.3801-74.3801,74.3801Z" style="fill:#17549a; stroke-width:0px;"/><path d="m129.8896,166.8728c-1.73,0-3.46.3-4.0901,1.14-.3198.41-.46.77-.4299,1.0499.05.3801.4299.74.6201.9102.99.8999,3.8699,1.4199,7.8401.4299,1.3699-.3501,2.6099-.8,3.7798-1.3501-1.4399-.8398-3.1399-1.5898-5.0601-1.9399-.7598-.1499-1.71-.24-2.6599-.24Z" style="fill:#17549a; stroke-width:0px;"/><path d="m42.8997,73.3228c0,38.75,31.53,70.28,70.29,70.28,8.3501,0,16.5-1.45,24.27-4.3-11.54-6.0199-21.3-14.96-28.3401-25.97-7.6299-11.9399-11.6699-25.78-11.6699-40.01,0-5.6399.6301-11.23,1.8801-16.6399-9.1602-4.1901-18.9602-6.3101-29.1602-6.3101-8.55,0-16.8899,1.51-24.8301,4.5-1.6199,5.97-2.4399,12.17-2.4399,18.45Z" style="fill:#17549a; stroke-width:0px;"/><path d="m127.6797,182.3428c-2.01-.4199-5.8101-.61-7.4299.65-.24.1901-.74.58-.8301,1.04.01,0-.04.4401.2.9401.5901,1.21,5.6602,4.1199,11.29,2.5599,1.79-.5,3.49-1.3,5.1101-2.28-2.8301-1.47-5.5701-2.4301-8.26-2.89l-.0801-.02Z" style="fill:#17549a; stroke-width:0px;"/><path d="m46.3196,50.1729c7.6702-2.5901,15.6702-3.91,23.8501-3.91,10.55,0,20.7,2.15,30.2,6.39,5.2-17.97,17.24-33.49,33.22-43.13-32.2998,2.12-62.3699,15.7001-85.46,38.7999-.6099.6101-1.21,1.23-1.8101,1.8501Z" style="fill:#17549a; stroke-width:0px;"/><path d="m121.6396,24.1729c-.04.05-.0798.09-.1099.12-8.6902,8.73-15.0801,19.75-18.1802,32.08-1.3899,5.47-2.1299,11.21-2.1299,17.11,0,26.54,14.8,49.6,36.5901,61.35.1399.0901.2898.16.4399.24.22.1201.4399.24.6599.3601v-.02c.49.26.99.51,1.49.75,0,.01.01.01.01.01-.01-2.66-.03-5.3301-.04-8-.02-6.51.03-12.15.0701-16.6801,0-1.0199.01-1.96.02-2.87-5.3501,5-13.76,4.4299-18.4199-1.61-.4302-.5499-1.0601-1-1.6902-1.33-4.6199-2.39-7.1799-6.0901-7.28-11.3601-.0098-.7-.1899-1.1699-.77-1.58-4.3098-3.11-5.8298-9.1801-3.2798-13.9401.3298-.6199.29-1.1399-.01-1.7699-2.01-4.2101-1.5701-8.2001,1.1799-11.9601.28-.3899.45-1.02.3701-1.49-.9302-5.1799,1.7798-10.25,6.71-12.2999.9399-.39,1.25-.8,1.1299-1.86-.4099-3.78,1.1201-6.6201,4.4102-8.5601,2.0098-1.1799,3.8899-2.59,5.9199-3.73,2.4099-1.36,5-2.28,7.8101-2.46,1.98-.13,3.75.36,5.2798,1.6499.4602.3801.8101.52,1.3401.05,2.1201-1.87,4.6399-2,7.25-1.45,4.01.85,7.47,2.85,10.73,5.24,1.04.76,2.23,1.37,3.1401,2.27,1.97,1.95,2.74,4.3999,2.3298,7.1399-.1299.91.1401,1.29.98,1.6301,5.1301,2.1199,7.76,7.0299,6.8301,12.5299-.0701.38.0601.89.3,1.2001,2.8899,3.84,3.3101,7.8999,1.27,12.26-.1902.3999-.21,1.0599-.01,1.45,2.6199,4.95,1.02,11.1799-3.46,14.3101-.3.2-.52.72-.53,1.0999-.1101,5.6501-2.76,9.5601-7.9001,11.8501-.3699.1599-.6899.54-.95.88-2.5701,3.4-5.95,5.16-10.3098,5.21-3.2202-.1-6-1.21-8.27-3.36-.0103.91-.0103,1.87-.02,2.89-.04,4.52-.0901,10.15-.0601,16.64.01,2.6799.02,5.37.04,8.0601.0298-.02.0698-.04.1099-.0601.5-.24.99-.49,1.49-.75v.02c.22-.1201.4402-.24.6602-.3601.1499-.08.2898-.1499.4399-.24,21.78-11.75,36.5901-34.8099,36.5901-61.35,0-5.9-.7402-11.64-2.1301-17.11-3.0999-12.33-9.5-23.35-18.1899-32.08-.03-.03-.0701-.0699-.1101-.12-5.96-6.0901-13.02-11.14-20.8699-14.75-7.8501,3.61-14.9102,8.6599-20.8701,14.75Z" style="fill:#17549a; stroke-width:0px;"/><path d="m142.5095,0C63.8037,0,0,63.8037,0,142.5095c0,76.5468,60.3552,138.9819,136.0708,142.3506-.0869-.7869-.1482-1.5347-.1812-2.2173-.05-.86-.05-1.7-.03-2.52-34.25-1.62-66.22-15.73-90.6299-40.14-25.99-25.98-40.3-60.5299-40.3-97.2799s14.3101-71.3,40.3-97.28C71.1096,19.5328,105.4897,5.2428,142.0696,5.1328l.4402-.2.45.2c36.5801.11,70.95,14.41,96.8301,40.29,25.99,25.98,40.2998,60.53,40.2998,97.28,0,72.25-55.96,132.1599-127.75,137.22.04.77.0701,1.55.0601,2.35-.0078.7863-.0547,1.5905-.1213,2.3993,74.1477-5.0215,132.741-66.7415,132.741-142.1626C285.0193,63.8037,221.2156,0,142.5095,0Z" style="fill:#17549a; stroke-width:0px;"/><path d="m115.6196,201.2828c-.23.2799-.4299.5699-.6099.88-.23.76-.25,1.3899-.0601,1.86.78,2.01,6.3101,3.49,12.01,2.3199,3.4099-.6899,6.1399-1.84,10.4099-5.74-4.8499-2.24-9.6399-3.21-13.6299-2.62-5.1501.75-7.75,2.9601-8.1201,3.3Z" style="fill:#17549a; stroke-width:0px;"/><path d="m140.6396,41.9229c-.0798-2.15-1.5598-3.5-3.6899-3.4401-2.0601.05-3.9199.77-5.75,1.6-.71.3201-.77.6401-.04,1.0801,1.4202.87,2.5701,2.02,3.21,3.6.3901.9501.0701,1.87-.8098,2.39-.79.46-1.77.26-2.3801-.52-.3301-.4099-.5701-.87-.8999-1.27-1.3101-1.58-3.52-2.1-5.3601-1.3-1.8701.8301-3.03,2.8901-2.77,4.9001.1201.9199.3901,1.6399,1.53,1.6499.4299,0,.8601.21,1.29.3401,4.3699,1.3799,7.5901,5.74,7.5798,10.25,0,1.3699-.5598,2.0499-1.7397,2.1199-1.1602.0701-1.8401-.59-1.9902-1.8999-.0598-.55-.1499-1.1001-.27-1.64-.9299-4.03-5.0298-6.4-9.1299-5.29-3.78,1.03-6.1399,5.42-4.8398,9.2101.4399,1.2899.2,2.1599-.75,3.0699-1.7202,1.63-2.4902,3.7001-2.1602,6.0599.52,3.73,3.0801,6.1001,6.8401,6.48.3999.04.8298.0701,1.1899.2201.79.3199,1.1499,1.14.98,2.0399-.1699.92-.78,1.4501-1.8101,1.49-2.0701.0801-3.95-.5599-5.74-1.5499-.9299-.51-1.0898-.4401-1.3198.6-.7402,3.3301.6699,6.48,3.6299,8.13,1.5601.87,1.71,1.1801,1.49,2.9401-.51,3.9099,1.73,7.84,5.3101,9.1,1.1899.42,2.01,1.0599,2.6899,2.13,2.1301,3.28,6.3501,4.6,10.02,3.24,3.6499-1.3501,5.71-4.5,5.71-8.8101.01-13.4199,0-26.85-.01-40.27,0-2.9099-.77-3.83-3.7-4.4399-1.0601-.22-1.6101-.9299-1.54-1.98.0701-.98.79-1.72,1.8501-1.7.77.02,1.5598.1299,2.2898.3599.79.24,1.1201.1001,1.1101-.75-.01-.6899-.01-1.3799-.01-2.0599v-2.0699c0-1.3401.04-2.6801-.01-4.01Zm-3.8125,39.6541c-.3257.9971-1.127,1.2841-2.0898,1.3437-3.1853.1978-5.3093,1.8687-6.4993,4.7791-.1804.4412-.2446.9307-.353,1.4001-.2036.8826-.0208,1.4548.8843,1.9866,3.322,1.9512,5.2034,4.8892,5.5112,8.7717.0291.3682.0295.7468-.021,1.1117-.1279.9247-.8328,1.5638-1.7207,1.6064-.9055.0436-1.7395-.6066-1.9119-1.5289-.1223-.6558-.1509-1.3312-.302-1.979-.75-3.217-3.3247-5.3995-6.6287-5.6523-.1482-.0112-.2981-.0037-.4456-.0194-1.0637-.1141-1.7769-.7871-1.854-1.7448-.082-1.0172.5435-1.9128,1.6392-2.0272.822-.0858,1.0095-.4169,1.0928-1.1696.4531-4.1016,4.0605-8.0891,8.082-8.9993.7585-.1716,1.5273-.2969,1.9207-.3724,2.1528-.0446,3.1697,1.0427,2.6958,2.4935Zm-.8662-15.1799c.6968.7227.7336,1.8398.0215,2.6219-1.3364,1.4672-2.9934,2.4581-4.9138,2.9061-.9209.2147-1.377.6693-1.6753,1.5325-1.0759,3.114-4.334,5.4434-7.5718,5.4879-1.2422.0172-2.1001-.6722-2.1746-1.7477-.0811-1.1677.6575-2.0031,1.9695-2.0752,1.606-.0881,2.8389-.7751,3.7449-2.0791.3494-.5029.4524-.8496-.3513-1.1069-4.061-1.3005-6.7-4.0078-7.7314-8.1741-.2109-.8513-.2378-1.7646-.2332-2.6487.0049-.9305.8145-1.6841,1.7092-1.7396.897-.0555,1.7139.5948,1.9199,1.5258.24,1.0835.3342,2.2272.749,3.2391,1.8005,4.3899,7.3315,5.8164,11.0835,2.9182.3228-.2494.6106-.5443.9348-.7911.8259-.6288,1.8445-.5688,2.519.1309Z" style="fill:#17549a; stroke-width:0px;"/></g></g></svg>